<svg width="200" height="73" viewBox="0 0 200 73" fill="none" xmlns="http://www.w3.org/2000/svg">
<mask id="mask0_1_36" style="mask-type:luminance" maskUnits="userSpaceOnUse" x="0" y="0" width="200" height="73">
<path d="M200 0H0V72.948H200V0Z" fill="white"/>
</mask>
<g mask="url(#mask0_1_36)">
<path d="M183.114 37.9063C178.36 37.9063 174.492 34.0383 174.492 29.2853C174.492 24.5323 178.36 20.6644 183.114 20.6644C187.867 20.6644 191.736 24.5323 191.736 29.2853C191.736 34.0383 187.867 37.9063 183.114 37.9063ZM183.114 12.4004C173.788 12.4004 166.228 19.9602 166.228 29.2853C166.228 38.6104 173.788 46.1703 183.114 46.1703C192.44 46.1703 200 38.6104 200 29.2853C200 19.9602 192.44 12.4004 183.114 12.4004Z" fill="#010101"/>
<path d="M16.8863 37.9063C12.1329 37.9063 8.26467 34.0383 8.26467 29.2853C8.26467 24.5323 12.1329 20.6644 16.8863 20.6644C21.6397 20.6644 25.508 24.5323 25.508 29.2853C25.508 34.0383 21.6397 37.9063 16.8863 37.9063ZM34.4475 29.4565V13.7794H26.178V15.1926C23.5127 13.4322 20.3193 12.4004 16.8863 12.4004C7.56046 12.4004 0 19.9602 0 29.2853C0 38.6104 7.56046 46.1703 16.8863 46.1703C21.4637 46.1703 25.6058 44.3414 28.6476 41.3879C30.4619 45.5933 33.22 49.3781 36.7949 52.4245L42.1547 46.1311C37.2546 41.96 34.4426 35.8819 34.4426 29.4565" fill="#010101"/>
<path d="M149.796 13.7803H126.269H122.136H118.004V45.4719H126.273V22.0492H135.917V45.4719H144.187V22.0492H149.801C152.021 22.0492 153.83 23.8584 153.83 26.0785V45.4719H162.1V26.0785C162.1 19.2961 156.584 13.7803 149.801 13.7803" fill="#010101"/>
<path d="M56.3463 37.9068C51.5929 37.9068 47.7246 34.0388 47.7246 29.2858C47.7246 24.5328 51.5929 20.6649 56.3463 20.6649C61.0997 20.6649 64.9679 24.5328 64.9679 29.2858C64.9679 34.0388 61.0997 37.9068 56.3463 37.9068ZM65.6379 0V15.193C62.9727 13.4327 59.7793 12.4009 56.3463 12.4009C47.0204 12.4009 39.46 19.9607 39.46 29.2858C39.46 38.6109 47.0204 46.1707 56.3463 46.1707C59.7793 46.1707 62.9727 45.139 65.6379 43.3786V45.4666H73.9075V0H65.6379Z" fill="#010101"/>
<path d="M94.9264 37.9063C90.173 37.9063 86.3047 34.0383 86.3047 29.2853C86.3047 24.5323 90.173 20.6644 94.9264 20.6644C99.6798 20.6644 103.548 24.5323 103.548 29.2853C103.548 34.0383 99.6798 37.9063 94.9264 37.9063ZM104.218 13.7794V15.1926C101.553 13.4322 98.3594 12.4004 94.9264 12.4004C85.6005 12.4004 78.04 19.9602 78.04 29.2853C78.04 38.6104 85.6005 46.1703 94.9264 46.1703C98.3594 46.1703 101.553 45.1385 104.218 43.3781V45.4661H112.488V13.7745H104.218V13.7794Z" fill="#010101"/>
<path d="M45.2306 61.056V64.9729H50.385V65.8824H45.2306V70.1122H44.1743V60.1416H51.011V61.0511H45.2257L45.2306 61.056Z" fill="#010101"/>
<path d="M52.6104 60.2589C52.6104 59.8726 52.938 59.5449 53.3537 59.5449C53.7694 59.5449 54.0921 59.8579 54.0921 60.2442C54.0921 60.655 53.7791 60.9826 53.3537 60.9826C52.9282 60.9826 52.6104 60.655 52.6104 60.254V60.2589ZM52.8353 62.6207H53.8476V70.1121H52.8353V62.6207Z" fill="#010101"/>
<path d="M64.2587 66.3664C64.2587 68.6304 62.6645 70.1854 60.5274 70.1854C59.2902 70.1854 58.2485 69.6426 57.6372 68.6353V70.117H56.6689V59.5498H57.6812V64.0486C58.3072 63.0803 59.3342 62.5669 60.5323 62.5669C62.6694 62.5669 64.2636 64.1072 64.2636 66.3713L64.2587 66.3664ZM63.2513 66.3664C63.2513 64.6158 62.0385 63.4471 60.459 63.4471C58.8794 63.4471 57.6666 64.6158 57.6666 66.3664C57.6666 68.117 58.8647 69.2857 60.459 69.2857C62.0532 69.2857 63.2513 68.117 63.2513 66.3664Z" fill="#010101"/>
<path d="M70.103 62.5674V63.5503C70.0199 63.5503 69.9318 63.5356 69.8585 63.5356C68.2936 63.5356 67.3351 64.5332 67.3351 66.2984V70.1175H66.3228V62.6261H67.291V64.0931C67.7605 63.0955 68.7141 62.5674 70.0981 62.5674H70.103Z" fill="#010101"/>
<path d="M77.5653 65.472V70.1175H76.597V68.9488C76.1422 69.7165 75.2571 70.1859 74.0198 70.1859C72.3229 70.1859 71.2861 69.3008 71.2861 68.005C71.2861 66.851 72.0246 65.8828 74.1763 65.8828H76.553V65.428C76.553 64.1468 75.8244 63.4476 74.4306 63.4476C73.4623 63.4476 72.5478 63.7899 71.9365 64.3327L71.4817 63.5796C72.2349 62.939 73.3498 62.5674 74.5284 62.5674C76.465 62.5674 77.5604 63.5356 77.5604 65.472H77.5653ZM76.553 67.8632V66.6407H74.2008C72.7483 66.6407 72.2789 67.2128 72.2789 67.9806C72.2789 68.851 72.9782 69.3888 74.1714 69.3888C75.3647 69.3888 76.152 68.8461 76.5481 67.8632H76.553Z" fill="#010101"/>
<path d="M81.1845 69.4035C81.1845 69.648 81.1258 69.8289 80.984 70.2299L80.3873 72.1956H79.7027L80.1868 70.1321C79.8885 70.0489 79.6733 69.7751 79.6733 69.4035C79.6733 68.9634 80.001 68.6358 80.4265 68.6358C80.8519 68.6358 81.1796 68.978 81.1796 69.4035H81.1845Z" fill="#010101"/>
<path d="M99.435 65.7703V70.1125H98.4227V65.8681C98.4227 64.2886 97.6256 63.4769 96.271 63.4769C94.7305 63.4769 93.7623 64.4745 93.7623 66.1859V70.1174H92.75V65.873C92.75 64.2935 91.9528 63.4818 90.5835 63.4818C89.0578 63.4818 88.0748 64.4793 88.0748 66.1908V70.1223H87.0625V62.631H88.0308V64.0001C88.5589 63.1053 89.5272 62.5772 90.7792 62.5772C92.0311 62.5772 92.9896 63.1053 93.4444 64.1566C93.9872 63.1884 95.0533 62.5772 96.4079 62.5772C98.232 62.5772 99.4302 63.6334 99.4302 65.7801L99.435 65.7703Z" fill="#010101"/>
<path d="M101.455 66.3662C101.455 64.1461 103.078 62.5618 105.274 62.5618C107.47 62.5618 109.079 64.1412 109.079 66.3662C109.079 68.5911 107.47 70.1852 105.274 70.1852C103.078 70.1852 101.455 68.5911 101.455 66.3662ZM108.052 66.3662C108.052 64.6156 106.868 63.4469 105.274 63.4469C103.68 63.4469 102.482 64.6156 102.482 66.3662C102.482 68.1168 103.68 69.2855 105.274 69.2855C106.868 69.2855 108.052 68.1168 108.052 66.3662ZM106.286 59.7012H107.641L105.333 61.4665H104.335L106.286 59.7012Z" fill="#010101"/>
<path d="M117.226 62.6211L113.891 70.1125H112.849L109.529 62.6211H110.585L113.392 69.0025L116.229 62.6211H117.226Z" fill="#010101"/>
<path d="M118.424 60.2589C118.424 59.8726 118.752 59.5449 119.163 59.5449C119.574 59.5449 119.901 59.8579 119.901 60.2442C119.901 60.655 119.588 60.9826 119.163 60.9826C118.737 60.9826 118.424 60.655 118.424 60.254V60.2589ZM118.649 62.6207H119.662V70.1121H118.649V62.6207Z" fill="#010101"/>
<path d="M122.483 59.5449H123.496V70.1121H122.483V59.5449Z" fill="#010101"/>
<path d="M136.342 62.6211L132.596 71.0122C131.971 72.4792 131.173 72.9486 130.102 72.9486C129.403 72.9486 128.733 72.7188 128.278 72.2641L128.748 71.511C129.119 71.8826 129.574 72.0831 130.117 72.0831C130.787 72.0831 131.242 71.7702 131.667 70.8313L131.995 70.1027L128.65 62.626H129.706L132.528 68.9927L135.35 62.626H136.347L136.342 62.6211Z" fill="#010101"/>
<path d="M140.749 66.3669C140.749 64.1322 142.372 62.5625 144.607 62.5625C145.874 62.5625 146.945 63.0613 147.541 64.0442L146.788 64.5576C146.275 63.8046 145.477 63.4476 144.607 63.4476C142.969 63.4476 141.771 64.6163 141.771 66.3669C141.771 68.1175 142.969 69.2862 144.607 69.2862C145.477 69.2862 146.275 68.9439 146.788 68.1908L147.541 68.7043C146.945 69.6725 145.874 70.1859 144.607 70.1859C142.372 70.1859 140.749 68.6065 140.749 66.3669Z" fill="#010101"/>
<path d="M155.175 65.472V70.1175H154.207V68.9488C153.752 69.7165 152.867 70.1859 151.63 70.1859C149.933 70.1859 148.896 69.3008 148.896 68.005C148.896 66.851 149.634 65.8828 151.786 65.8828H154.163V65.428C154.163 64.1468 153.434 63.4476 152.04 63.4476C151.072 63.4476 150.158 63.7899 149.546 64.3327L149.092 63.5796C149.845 62.939 150.96 62.5674 152.138 62.5674C154.075 62.5674 155.175 63.5356 155.175 65.472ZM154.168 67.8632V66.6407H151.816C150.363 66.6407 149.894 67.2128 149.894 67.9806C149.894 68.851 150.593 69.3888 151.786 69.3888C152.979 69.3888 153.767 68.8461 154.163 67.8632H154.168Z" fill="#010101"/>
<path d="M163.581 65.472V70.1175H162.613V68.9488C162.158 69.7165 161.273 70.1859 160.036 70.1859C158.339 70.1859 157.302 69.3008 157.302 68.005C157.302 66.851 158.041 65.8828 160.192 65.8828H162.569V65.428C162.569 64.1468 161.84 63.4476 160.447 63.4476C159.478 63.4476 158.564 63.7899 157.953 64.3327L157.498 63.5796C158.251 62.939 159.366 62.5674 160.545 62.5674C162.481 62.5674 163.581 63.5356 163.581 65.472ZM162.569 67.8632V66.6407H160.217C158.764 66.6407 158.295 67.2128 158.295 67.9806C158.295 68.851 158.994 69.3888 160.188 69.3888C161.381 69.3888 162.168 68.8461 162.564 67.8632H162.569Z" fill="#010101"/>
<path d="M171.988 65.472V70.1175H171.02V68.9488C170.565 69.7165 169.68 70.1859 168.443 70.1859C166.746 70.1859 165.709 69.3008 165.709 68.005C165.709 66.851 166.447 65.8828 168.599 65.8828H170.976V65.428C170.976 64.1468 170.247 63.4476 168.853 63.4476C167.885 63.4476 166.971 63.7899 166.359 64.3327L165.905 63.5796C166.658 62.939 167.773 62.5674 168.951 62.5674C170.888 62.5674 171.988 63.5356 171.988 65.472ZM170.976 67.8632V66.6407H168.624C167.171 66.6407 166.702 67.2128 166.702 67.9806C166.702 68.851 167.401 69.3888 168.594 69.3888C169.788 69.3888 170.575 68.8461 170.971 67.8632H170.976Z" fill="#010101"/>
<path d="M174.736 59.5449H175.749V70.1121H174.736V59.5449Z" fill="#010101"/>
<path d="M190.933 65.7703V70.1125H189.921V65.8681C189.921 64.2886 189.124 63.4769 187.769 63.4769C186.229 63.4769 185.26 64.4745 185.26 66.1859V70.1174H184.248V65.873C184.248 64.2935 183.451 63.4818 182.082 63.4818C180.556 63.4818 179.573 64.4793 179.573 66.1908V70.1223H178.561V62.631H179.529V64.0001C180.057 63.1053 181.025 62.5772 182.277 62.5772C183.529 62.5772 184.483 63.1053 184.942 64.1566C185.485 63.1884 186.551 62.5772 187.906 62.5772C189.73 62.5772 190.928 63.6334 190.928 65.7801L190.933 65.7703Z" fill="#010101"/>
<path d="M199.34 65.472V70.1175H198.371V68.9488C197.917 69.7165 197.031 70.1859 195.794 70.1859C194.097 70.1859 193.061 69.3008 193.061 68.005C193.061 66.851 193.799 65.8828 195.951 65.8828H198.327V65.428C198.327 64.1468 197.599 63.4476 196.205 63.4476C195.237 63.4476 194.322 63.7899 193.711 64.3327L193.256 63.5796C194.009 62.939 195.124 62.5674 196.303 62.5674C198.239 62.5674 199.34 63.5356 199.34 65.472ZM198.327 67.8632V66.6407H195.975C194.523 66.6407 194.053 67.2128 194.053 67.9806C194.053 68.851 194.753 69.3888 195.946 69.3888C197.139 69.3888 197.926 68.8461 198.323 67.8632H198.327Z" fill="#010101"/>
</g>
</svg>
