<?xml version="1.0" encoding="UTF-8" standalone="no"?>
<!-- Created with Inkscape (http://www.inkscape.org/) -->

<svg
   xmlns:dc="http://purl.org/dc/elements/1.1/"
   xmlns:cc="http://creativecommons.org/ns#"
   xmlns:rdf="http://www.w3.org/1999/02/22-rdf-syntax-ns#"
   xmlns:svg="http://www.w3.org/2000/svg"
   xmlns="http://www.w3.org/2000/svg"
   xmlns:sodipodi="http://sodipodi.sourceforge.net/DTD/sodipodi-0.dtd"
   xmlns:inkscape="http://www.inkscape.org/namespaces/inkscape"
   width="520"
   height="270"
   id="svg2"
   version="1.1"
   inkscape:version="0.47 r22583"
   sodipodi:docname="Documento nuevo 1">
  <defs
     id="defs4">
    <inkscape:perspective
       sodipodi:type="inkscape:persp3d"
       inkscape:vp_x="0 : 526.18109 : 1"
       inkscape:vp_y="0 : 1000 : 0"
       inkscape:vp_z="744.09448 : 526.18109 : 1"
       inkscape:persp3d-origin="372.04724 : 350.78739 : 1"
       id="perspective10" />
    <inkscape:perspective
       id="perspective2824"
       inkscape:persp3d-origin="0.5 : 0.33333333 : 1"
       inkscape:vp_z="1 : 0.5 : 1"
       inkscape:vp_y="0 : 1000 : 0"
       inkscape:vp_x="0 : 0.5 : 1"
       sodipodi:type="inkscape:persp3d" />
    <inkscape:perspective
       id="perspective2842"
       inkscape:persp3d-origin="0.5 : 0.33333333 : 1"
       inkscape:vp_z="1 : 0.5 : 1"
       inkscape:vp_y="0 : 1000 : 0"
       inkscape:vp_x="0 : 0.5 : 1"
       sodipodi:type="inkscape:persp3d" />
  </defs>
  <sodipodi:namedview
     id="base"
     pagecolor="#ffffff"
     bordercolor="#666666"
     borderopacity="1.0"
     inkscape:pageopacity="0.0"
     inkscape:pageshadow="2"
     inkscape:zoom="0.5"
     inkscape:cx="311.97633"
     inkscape:cy="123.14763"
     inkscape:document-units="px"
     inkscape:current-layer="layer1"
     showgrid="false"
     inkscape:window-width="1280"
     inkscape:window-height="744"
     inkscape:window-x="-4"
     inkscape:window-y="-4"
     inkscape:window-maximized="1" />
  <metadata
     id="metadata7">
    <rdf:RDF>
      <cc:Work
         rdf:about="">
        <dc:format>image/svg+xml</dc:format>
        <dc:type
           rdf:resource="http://purl.org/dc/dcmitype/StillImage" />
        <dc:title></dc:title>
      </cc:Work>
    </rdf:RDF>
  </metadata>
  <g
     inkscape:label="Capa 1"
     inkscape:groupmode="layer"
     id="layer1"
     transform="translate(0,-782.36218)">
    <rect
       style="fill:#000080;fill-opacity:1;fill-rule:nonzero;stroke:none"
       id="rect2830"
       width="519"
       height="271"
       x="1"
       y="783.36218" />
    <path
       style="fill:#ffffff;fill-opacity:1;fill-rule:nonzero;stroke:none"
       d="m 102.96065,144.87737 c -0.13971,-3.34019 0.10897,-57.384951 0.26476,-57.540739 0.32783,-0.327836 30.08115,-0.140396 33.25092,0.209475 5.32562,0.587827 7.79094,1.593303 10.69858,4.363399 2.20961,2.105089 2.88062,3.146582 3.56686,5.536217 1.51687,5.282038 0.15734,9.975228 -4.08362,14.096968 l -2.24012,2.17715 2.27244,1.06818 c 3.12249,1.46774 6.07636,5.86348 6.56426,9.76846 1.04767,8.38529 -1.83276,14.89697 -7.97869,18.03711 -5.01073,2.56014 -5.82387,2.64758 -24.67471,2.65337 -9.69375,0.003 -17.63206,-0.16334 -17.64068,-0.36959 z m 32.91433,-13.36644 c 1.8766,-1.57905 2.62802,-4.34412 1.89273,-6.96482 -0.76089,-2.71193 -2.59731,-3.91462 -6.66859,-4.36734 -4.15473,-0.462 -11.2636,-0.53284 -12.3319,-0.1229 -0.65897,0.25287 -0.79089,1.28146 -0.79089,6.16666 0,3.22475 0.15,6.01318 0.33333,6.19651 0.18334,0.18333 3.87857,0.33333 8.21164,0.33333 7.65957,0 7.91927,-0.0345 9.35368,-1.24144 z m -2.75103,-22.38356 c 2.29164,-1.06332 3.40106,-4.36676 2.37386,-7.0685 -0.87387,-2.298462 -2.77398,-2.806496 -10.49665,-2.806496 l -7.02483,0 0,5.249996 0,5.25 6.90032,0 c 4.46853,0 7.37502,-0.22026 8.2473,-0.625 l 0,0 z"
       id="path2848"
       transform="translate(0,782.36218)" />
    <path
       style="fill:#ffffff;fill-opacity:1;fill-rule:nonzero;stroke:none"
       d="m 168.72633,146.08862 c -6.29345,-2.0795 -9.25,-6.0105 -9.25,-12.29871 0,-4.20392 0.84686,-6.3311 3.46059,-8.69245 3.20041,-2.89138 6.04171,-3.76506 19.03941,-5.8545 2.0625,-0.33156 4.14375,-0.94995 4.625,-1.3742 1.36276,-1.20137 1.11271,-3.70156 -0.52736,-5.27284 -1.22602,-1.17461 -1.80758,-1.34331 -4.625,-1.34168 -3.63831,0.002 -6.13922,1.14725 -6.74539,3.08864 -0.19911,0.63772 -0.61295,1.3248 -0.91964,1.52684 -0.7874,0.51872 -11.4133,0.45874 -12.24672,-0.0691 -0.57779,-0.36597 -0.54214,-0.90993 0.22067,-3.36735 0.72379,-2.33172 1.49922,-3.50325 3.79317,-5.73084 4.12706,-4.00764 6.5171,-4.70141 16.17527,-4.69523 8.379,0.005 10.43448,0.42844 14.08129,2.89836 1.72405,1.16766 2.80901,2.42202 3.77766,4.36749 l 1.35896,2.72935 0.0189,12.5 c 0.0173,11.39874 0.28474,15.46777 1.27358,19.375 l 0.34798,1.375 -6.81492,0 -6.81493,0 -0.59052,-1.375 c -0.32479,-0.75625 -0.65339,-1.46467 -0.73022,-1.57427 -0.0768,-0.10961 -1.07143,0.44641 -2.21021,1.23558 -1.13878,0.78918 -2.88661,1.73729 -3.88406,2.10692 -2.64579,0.98046 -10.37794,1.2478 -12.81355,0.44302 z m 15.05675,-9.28926 c 2.10669,-1.28462 3.69325,-4.70189 3.69325,-7.95485 0,-1.42567 -0.19409,-2.59214 -0.43131,-2.59214 -0.78797,0 -8.7958,2.02843 -10.21064,2.58641 -3.48812,1.37564 -4.37899,5.05868 -1.80517,7.46299 1.33466,1.24676 1.94945,1.45034 4.375,1.44873 1.88918,-0.001 3.33675,-0.31568 4.37887,-0.95114 l 0,0 z"
       id="path2850"
       transform="translate(0,782.36218)" />
    <path
       style="fill:#ffffff;fill-opacity:1;fill-rule:nonzero;stroke:none"
       d="m 211.71052,144.64147 c -0.13509,-0.35204 -0.18679,-9.86485 -0.1149,-21.13958 l 0.13071,-20.49952 6.5,0 6.5,0 0.14955,2.86133 0.14954,2.86133 2.69326,-2.69327 c 2.2031,-2.20309 3.17687,-2.79971 5.35046,-3.27814 1.46145,-0.32169 3.78219,-0.50982 5.15719,-0.41807 l 2.5,0.16682 0.13991,6.37061 0.1399,6.37061 -4.3899,-0.28451 c -5.07653,-0.32901 -6.78074,0.30999 -9.37738,3.51609 l -1.51253,1.86753 -0.25,12.32984 -0.25,12.32983 -6.6351,0.13959 c -5.03361,0.10589 -6.69438,-0.0149 -6.88071,-0.50049 z"
       id="path2852"
       transform="translate(0,782.36218)" />
    <path
       style="fill:#ffffff;fill-opacity:1;fill-rule:nonzero;stroke:none"
       d="m 260.97633,146.32225 c -5.78773,-1.24534 -12.40432,-6.43269 -14.68376,-11.51195 -2.66914,-5.94764 -2.92501,-13.28005 -0.67052,-19.21488 1.69509,-4.46223 5.55847,-9.23353 8.86126,-10.94372 9.08608,-4.704794 21.14294,-3.60578 27.60338,2.51611 3.15386,2.98859 5.81772,9.1784 4.71671,10.95986 -0.27477,0.44459 -2.15185,0.6247 -6.51035,0.6247 l -6.12427,0 -0.84953,-1.92549 c -1.34617,-3.05117 -2.36972,-3.69333 -5.99821,-3.76318 -3.83823,-0.0739 -5.33383,0.6308 -7.19366,3.38944 -1.30797,1.94006 -1.38209,2.35557 -1.39131,7.79923 -0.0108,6.3751 0.45447,7.82919 3.26067,10.19045 1.32361,1.11374 2.03405,1.30955 4.75129,1.30955 2.94698,0 3.32239,-0.12773 4.83663,-1.6457 0.90292,-0.90514 1.86667,-2.42389 2.14167,-3.375 l 0.5,-1.7293 6.45943,-0.14057 c 3.55269,-0.0773 6.66904,0.0691 6.92523,0.32524 0.6326,0.63259 -1.39085,6.25284 -3.20739,8.90872 -2.28458,3.3402 -5.60787,5.81202 -9.97291,7.41775 -2.45113,0.90168 -10.71407,1.39836 -13.45436,0.80874 z"
       id="path2854"
       transform="translate(0,782.36218)" />
    <path
       style="fill:#ffffff;fill-opacity:1;fill-rule:nonzero;stroke:none"
       d="m 310.72633,146.41633 c -6.44588,-1.41838 -12.63757,-6.01762 -15.22661,-11.31046 -5.61399,-11.47679 -1.28892,-25.47718 9.481,-30.69034 4.71613,-2.28283 6.3162,-2.66316 11.20416,-2.66316 9.21388,0 15.55517,3.71375 19.51047,11.42624 2.20051,4.29079 3.53005,12.82965 2.17299,13.95591 -0.52154,0.43284 -4.86734,0.63985 -15.43398,0.73517 l -14.70803,0.13268 0.118,1.94363 c 0.14001,2.30619 1.94606,4.89094 4.20481,6.01775 1.96857,0.98206 7.00574,1.03278 8.82702,0.0889 0.74259,-0.38485 1.97066,-1.39735 2.72903,-2.25 l 1.37886,-1.55027 5.96663,0 c 3.39203,0 6.09844,0.21327 6.27209,0.49424 0.46037,0.74489 -1.53702,4.8972 -3.51946,7.31651 -1.90515,2.32499 -7.23982,5.24922 -11.22698,6.15415 -2.21201,0.50204 -9.7897,0.63041 -11.75,0.19906 z m 13.00754,-27.17616 c 0.58949,-0.95382 -0.30731,-3.37877 -1.95408,-5.2838 -1.53119,-1.77133 -1.85417,-1.90983 -4.90663,-2.1042 -4.47821,-0.28515 -6.45157,0.68619 -8.09529,3.98469 -1.93109,3.87521 -1.85933,3.91551 6.97245,3.91551 4.69372,0 7.78976,-0.19863 7.98355,-0.5122 z"
       id="path2856"
       transform="translate(0,782.36218)" />
    <path
       style="fill:#ffffff;fill-opacity:1;fill-rule:nonzero;stroke:none"
       d="m 346.32314,144.93252 c -0.57469,-0.57469 -0.41789,-57.077196 0.15938,-57.433971 0.78125,-0.482841 13.07008,-0.369903 13.56465,0.124663 0.24282,0.242818 0.38002,13.106788 0.30833,28.908328 l -0.12917,28.47083 -6.77819,0.13848 c -3.728,0.0762 -6.93425,-0.0176 -7.125,-0.20833 l 0,0 z"
       id="path2858"
       transform="translate(0,782.36218)" />
    <path
       style="fill:#ffffff;fill-opacity:1;fill-rule:nonzero;stroke:none"
       d="m 385.41265,146.31426 c -3.29491,-0.69858 -7.64496,-3.20661 -10.50059,-6.05414 -5.3356,-5.32046 -7.54185,-13.2499 -5.87305,-21.10814 2.26643,-10.67233 10.66284,-17.37534 21.78793,-17.39367 7.31692,-0.0121 12.76008,2.4017 17.16161,7.61027 3.92768,4.64784 5.25684,8.53239 5.17828,15.13379 -0.0459,3.85962 -0.31644,5.68424 -1.18604,8 -2.01971,5.37861 -6.16829,9.686 -11.94843,12.40587 -2.74019,1.28941 -3.87678,1.52337 -8,1.64675 -2.64331,0.0791 -5.62218,-0.0292 -6.61971,-0.24073 l 0,0 z m 9.35176,-11.38282 c 0.6891,-0.45151 1.86243,-1.85776 2.60741,-3.125 1.24389,-2.1159 1.35335,-2.73283 1.34026,-7.55407 -0.0114,-4.21006 -0.20951,-5.63747 -1,-7.20609 -1.38036,-2.73915 -3.10236,-3.8626 -6.12893,-3.99858 -3.97854,-0.17875 -5.84958,0.82922 -7.39228,3.9824 -1.12493,2.29927 -1.31409,3.34579 -1.32767,7.34531 -0.0179,5.28051 0.86975,7.74183 3.62957,10.06407 1.2672,1.06628 2.07295,1.31289 4.28952,1.31289 1.68872,0 3.20689,-0.31297 3.98212,-0.82093 z"
       id="path2860"
       transform="translate(0,782.36218)" />
    <path
       style="fill:#ffffff;fill-opacity:1;fill-rule:nonzero;stroke:none"
       d="m 382.97633,98.106383 c 0,-0.355295 1.74375,-3.195155 3.875,-6.3108 l 3.875,-5.664809 6.62396,-0.02358 c 3.64318,-0.01297 6.77961,0.132079 6.96986,0.322322 0.4136,0.41361 -3.13989,4.136481 -8.47199,8.875817 l -3.87818,3.447036 -4.49682,0 c -3.34206,0 -4.49683,-0.165888 -4.49683,-0.645991 z"
       id="path2862"
       transform="translate(0,782.36218)" />
    <path
       style="fill:#ffffff;fill-opacity:1;fill-rule:nonzero;stroke:none"
       d="m 146.16136,203.53218 c -0.86074,-0.37458 -1.75892,-0.98452 -1.99596,-1.35543 -2.63666,-4.12576 -2.02798,-14.57965 0.97123,-16.68038 1.56597,-1.09684 6.95647,-1.00792 7.94141,0.131 0.92049,1.06442 1.92807,3.92856 1.52413,4.3325 -0.16088,0.16088 -0.93001,0.2925 -1.70917,0.2925 -1.03087,0 -1.41667,-0.24509 -1.41667,-0.9 0,-1.33774 -1.00536,-2.1 -2.76974,-2.1 -1.19692,0 -1.70756,0.30248 -2.15,1.27353 -0.8649,1.89825 -0.74214,9.46308 0.18258,11.2513 1.40539,2.71773 4.73716,1.3772 4.73716,-1.90599 0,-1.32186 -0.20421,-1.57591 -1.375,-1.71063 -1.09114,-0.12554 -1.375,-0.41626 -1.375,-1.40821 0,-1.19444 0.13333,-1.25 3,-1.25 l 3,0 0,4.75 c 0,4.54526 -0.0485,4.75689 -1.125,4.90978 -0.61875,0.0879 -1.125,-0.0776 -1.125,-0.36765 0,-0.29009 -0.73125,-0.0816 -1.625,0.46335 -1.89764,1.15702 -2.57114,1.19641 -4.68997,0.27433 l 0,0 z"
       id="path2864"
       transform="translate(0,782.36218)" />
    <path
       style="fill:#ffffff;fill-opacity:1;fill-rule:nonzero;stroke:none"
       d="m 207.14457,203.21878 c -0.9011,-0.33502 -1.14048,-0.95048 -1.43334,-3.68512 -0.33671,-3.14418 -0.41778,-3.30091 -1.91824,-3.70852 -2.39023,-0.64932 -2.89863,0.0671 -2.76006,3.88943 l 0.11919,3.2878 -1.71289,0 -1.7129,0 0,-9 0,-9 4.82494,-0.1425 c 4.75466,-0.14042 4.84099,-0.12221 5.92616,1.25 0.90796,1.14812 1.05233,1.81075 0.82264,3.77574 -0.15321,1.31078 -0.62168,2.8731 -1.04104,3.47181 -0.64831,0.92559 -0.65969,1.20508 -0.076,1.86676 0.37755,0.42801 0.84266,2.37783 1.03357,4.33293 0.37583,3.84885 0.0378,4.44611 -2.07203,3.66167 z m -1.68583,-11.43354 c 1.40056,-2.61696 0.15388,-4.53287 -2.94954,-4.53287 -1.52469,0 -1.53287,0.0147 -1.53287,2.75 l 0,2.75 1.98241,0 c 1.44822,0 2.12188,-0.2606 2.5,-0.96713 z"
       id="path2866"
       transform="translate(0,782.36218)" />
    <path
       style="fill:#ffffff;fill-opacity:1;fill-rule:nonzero;stroke:none"
       d="m 255.67039,203.76234 c -0.58077,-0.23466 -1.53702,-1.03824 -2.125,-1.78574 -0.99045,-1.25915 -1.06906,-1.94469 -1.06906,-9.32333 l 0,-7.96425 1.625,0.15667 1.625,0.15668 0.08,6.25 c 0.131,10.23271 0.0102,9.44084 1.49738,9.8141 2.65887,0.66734 2.89979,0.0319 3.17261,-8.36736 l 0.25,-7.69674 1.5,0 1.5,0 0.13941,7.23666 c 0.15051,7.81308 -0.17184,9.37632 -2.27452,11.03029 -1.30785,1.02876 -4.03323,1.2557 -5.92083,0.49302 l 0,0 z"
       id="path2868"
       transform="translate(0,782.36218)" />
    <path
       style="fill:#ffffff;fill-opacity:1;fill-rule:nonzero;stroke:none"
       d="m 307.85133,203.36202 -1.375,-0.17607 0,-9.13345 c 0,-5.0234 0.0927,-9.22721 0.20607,-9.34179 0.11334,-0.11459 2.12377,-0.13597 4.46764,-0.0475 3.79465,0.1432 4.40207,0.30132 5.54393,1.44318 1.05571,1.05572 1.28236,1.75342 1.28236,3.94752 0,2.38401 -0.18636,2.85151 -1.76667,4.43182 -1.49485,1.49486 -2.11027,1.76666 -4,1.76666 l -2.23333,0 0,3.4705 c 0,1.90877 -0.16875,3.54805 -0.375,3.64285 -0.20625,0.0948 -0.99375,0.0931 -1.75,-0.004 l 0,0 z m 6.10741,-11.07678 c 1.31537,-2.45778 -0.1396,-5.03287 -2.84366,-5.03287 -1.05847,0 -1.13875,0.2115 -1.13875,3 l 0,3 1.73241,0 c 1.20105,0 1.89116,-0.29663 2.25,-0.96713 z"
       id="path2870"
       transform="translate(0,782.36218)" />
    <path
       style="fill:#ffffff;fill-opacity:1;fill-rule:nonzero;stroke:none"
       d="m 363.62561,203.29839 c -2.59563,-1.62444 -3.33328,-3.6155 -3.36846,-9.09213 -0.0466,-7.24521 1.40119,-9.42346 6.276,-9.44277 2.32639,-0.009 3.01809,0.20016 4.04117,1.22323 3.46872,3.46873 3.08403,14.10151 -0.60971,16.85218 -1.95264,1.45409 -4.45943,1.6358 -6.339,0.45949 l 0,0 z m 4.15087,-2.42867 c 1.19104,-0.79528 1.69985,-2.71816 1.69985,-6.42398 0,-2.1298 -0.2702,-4.61959 -0.60044,-5.53287 -0.50848,-1.40617 -0.84372,-1.6605 -2.18878,-1.6605 -2.5191,0 -2.96078,0.99972 -2.96078,6.70162 0,3.19551 0.23585,5.46128 0.64259,6.17338 0.63423,1.11036 2.30974,1.47538 3.40756,0.74235 z"
       id="path2872"
       transform="translate(0,782.36218)" />
  </g>
</svg>
