<svg class="HomeIntroductionstyles__Logo-sc-104fkxp-2 fBCtNg" height="82" role="img" width="185" xmlns="http://www.w3.org/2000/svg" viewBox="0 0 185 82"><g><path d="m52.15 21.58 4.169-9.951 4.169 9.952H52.15Zm13.94 13.55h7.538L59.24.651h-5.863L38.992 35.13h7.537l2.736-6.671h14.052l2.773 6.672ZM21.44 35.614c5.36 0 10.516-2.609 13.494-6.41l.54-.616-5.23-4.547-.968 1.08c-1.414 1.529-4.039 3.616-7.854 3.616-6.384 0-10.85-4.472-10.85-10.865 0-6.392 4.466-10.865 10.403-10.865 5.938 0 5.993 1.268 7.743 3.168l.577.597 4.95-4.715-1.153-1.174C30.058 1.938 25.628.149 20.957.149c-10.032 0-17.57 7.79-17.57 17.742 0 9.952 7.65 17.742 18.016 17.742M134.972 11.61l4.169 9.952h-8.338l4.169-9.952ZM132.05.634 117.663 35.11h7.538l2.717-6.672h14.052l2.754 6.672h7.557L137.894.634h-5.863.019ZM158.423.634V35.13h22.557v-6.877h-15.392V.633h-7.165ZM105.081.634v23.463L86.172.634h-6.421V35.13h7.165V13.083l18.165 22.047h7.166V.634h-7.166Z" fill="#5DC5EA"></path><path d="M177.816 46.833v13.008h-17.16V46.833h-7.166V81.33h7.166v-14.63h17.16v14.63h7.165V46.833h-7.165ZM30.17 46.852l-12.098 18.99-12.098-18.99H.094v34.477h7.165V61.873l8.468 13.157h4.69l8.45-13.157v19.456h7.184V46.852h-5.882ZM99.424 58.91c-.484.465-1.266.931-3.444.931h-5.844V53.71h5.844c2.178 0 2.96.466 3.444.932.576.559.912 1.323.912 2.124 0 .802-.336 1.566-.912 2.125m4.243 5.498c2.438-2.013 3.834-4.995 3.834-8.182 0-3.187-1.414-5.553-3.89-7.343-1.935-1.416-4.206-2.03-7.389-2.03h-13.27V81.31h7.166V66.7h2.736l11.111 14.61h8.766L101.08 65.935a9.333 9.333 0 0 0 2.568-1.546M140.332 71.321c-1.414 1.529-4.039 3.616-7.854 3.616-6.384 0-10.851-4.473-10.851-10.865 0-6.393 4.467-10.865 10.404-10.865s5.993 1.267 7.743 3.168l.577.596 4.95-4.733-1.154-1.174c-3.033-2.945-7.463-4.734-12.134-4.734-10.032 0-17.57 7.79-17.57 17.742 0 9.952 7.65 17.742 18.016 17.742 10.367 0 10.516-2.61 13.494-6.411l.539-.615-5.229-4.548-.968 1.081h.037ZM59.502 57.829l4.15 9.951h-8.338l4.169-9.951h.019Zm-2.923-10.996L42.193 81.31h7.537l2.736-6.671h14.052l2.773 6.671h7.538L62.442 46.833H56.58Z" fill="#141414"></path></g></svg>