<svg height="192.327606" viewBox="0 0 175.74799 65.006975" width="519.94616" xmlns="http://www.w3.org/2000/svg"><g clip-rule="evenodd" fill-rule="evenodd" transform="matrix(.96858942 0 0 .96858942 -6.761869 -66.40531)"><path d="m104.19614 104.92863v11.18c0 3.567-2.311 4.961-4.790996 4.961-2.719 0-4.69-1.733-4.69-4.621v-11.52h-4.724v11.417c0 6.185 3.976 8.903 9.48 8.903 5.165996 0 9.446996-2.311 9.446996-8.938v-11.382zm12.402 6.49h-4.043v13.559h4.043v-8.733c1.053-1.665 1.801-2.243 2.787-2.243 1.154 0 2.004.816 2.004 2.719v8.258h4.01v-8.598c0-4.01-2.65-5.199-4.654-5.199-1.631 0-2.889.646-4.146 2.175v-1.938zm16.242 0h-4.01v13.559h4.01zm14.612 9.854c-1.801.714-2.65.951-3.635.951-2.277 0-3.807-1.597-3.807-4.01 0-2.379 1.529-3.907 3.977-3.907.986 0 2.209.339 3.262.917v-3.16c-1.324-.544-2.99-.884-4.314-.884-4.215 0-7.238 2.923-7.238 7.068 0 4.214 2.922 7 7.408 7 1.357 0 2.717-.306 4.348-.918v-3.057zm15.767.34c-.951.713-1.256.781-1.529.781-.441 0-.68-.272-.68-.951v-6.151c0-2.99-2.174-4.111-5.402-4.111-2.039 0-3.908.544-5.572 1.631v3.467c1.291-1.394 3.125-2.277 4.723-2.277 1.768 0 2.311 1.02 2.242 2.277-5.369 1.767-7.611 2.412-7.611 5.641 0 1.699 1.529 3.33 3.568 3.33 1.393 0 2.686-.442 4.213-1.529.307 1.087.918 1.529 2.277 1.529 1.053 0 2.65-.544 3.771-1.258zm-6.219.068c-.68.646-1.494 1.02-2.242 1.02-.713 0-1.291-.646-1.291-1.427 0-1.359 1.121-1.938 3.533-2.854zm12.065-10.262h-4.045v12.912c0 2.209-.611 3.297-2.072 3.534l1.291 3.874c2.039-.204 4.826-1.767 4.826-6.389zm16.412 10.194c-.951.713-1.258.781-1.529.781-.441 0-.68-.272-.68-.951v-6.151c0-2.99-2.174-4.111-5.402-4.111-2.039 0-3.908.544-5.572 1.631v3.467c1.291-1.394 3.125-2.277 4.723-2.277 1.768 0 2.311 1.02 2.242 2.277-5.369 1.767-7.611 2.412-7.611 5.641 0 1.699 1.529 3.33 3.568 3.33 1.393 0 2.684-.442 4.213-1.529.307 1.087.918 1.529 2.277 1.529 1.053 0 2.65-.544 3.771-1.258zm-6.219.068c-.68.646-1.494 1.02-2.242 1.02-.715 0-1.291-.646-1.291-1.427 0-1.359 1.121-1.938 3.533-2.854z"/><path d="m10.001144 132.35063h175.034996v2.48h-175.034996z" fill="#cc2131"/><path d="m52.816144 126.91363c-22.087-18.248-43.087-35.408003-43.087-35.408003s5.437-8.223 14.306-13.932zm-2.005-6.694c-11.926-19.981-25.485-43.190003-25.485-43.190003s7.883-5.029 15.461-6.32zm.34-5.777c-3.67-18.248003-8.393-43.972003-8.393-43.972003s6.388-1.223 13.457-.306zm2.311-5.607c2.549-20.252003 4.384-38.500003 4.384-38.500003s6.389.612 10.568 2.957c-.001 0-5.335 12.64-14.952 35.543003zm3.194-3.228c8.903-20.627003 13.49-31.772003 13.49-31.772003s3.942 1.087 7.952 4.485zm3.84-2.548c15.767-19.879003 18.655-23.990003 18.655-23.990003s1.359.238 5.165 4.417zm3.33-.714c19.029-15.325003 21.748-17.365003 21.748-17.365003s2.378 2.243 3.534 4.35zm6.899-1.699c13.048-6.728003 19.471-9.685003 19.471-9.685003s.713.714 1.529 2.651zm3.975.102c17.976-5.505003 17.466-5.539003 17.466-5.539003s.714 1.257.714 2.175z" fill="#62a24c"/><path d="m126.24814 104.48563a3.654 3.654 0 0 1 3.67-3.669 3.675 3.675 0 0 1 3.67 3.669c0 2.005-1.664 3.67-3.67 3.67a3.676 3.676 0 0 1 -3.67-3.67z" fill="#cc2131"/><path d="m162.91414 104.62263c0-2.107 1.699-3.806 3.771-3.806a3.8 3.8 0 0 1 3.807 3.806c0 2.072-1.699 3.771-3.807 3.771a3.785 3.785 0 0 1 -3.771-3.771z" fill="#62a24c"/></g></svg>